<svg width="200" height="200" viewBox="0 0 200 200" fill="none" xmlns="http://www.w3.org/2000/svg">
<path fill-rule="evenodd" clip-rule="evenodd" d="M8.92141 125.454C9.01783 125.094 9.03902 124.732 8.99551 124.384L87.9236 105.284C92.0082 104.295 95.6966 107.976 94.7065 112.052L75.9573 189.22C74.5015 188.901 73.0385 189.778 72.6496 191.23C72.2494 192.723 73.1387 194.26 74.6357 194.661C76.1328 195.062 77.671 194.176 78.0712 192.682C78.4601 191.231 77.6319 189.74 76.2115 189.288L98.5589 113.084C99.7397 109.059 104.774 107.716 107.817 110.614L166.621 166.618C166.408 166.898 166.246 167.224 166.149 167.583C165.749 169.077 166.638 170.613 168.135 171.014C169.632 171.415 171.171 170.53 171.571 169.036C171.971 167.543 171.082 166.006 169.585 165.605C168.513 165.318 167.42 165.69 166.738 166.474L110.635 107.801C107.731 104.764 109.078 99.7395 113.111 98.5612L191.034 75.8011C191.232 76.8204 191.993 77.6893 193.065 77.9766C194.562 78.3777 196.1 77.492 196.5 75.9984C196.9 74.5048 196.011 72.9686 194.514 72.5674C193.017 72.1663 191.479 73.0521 191.079 74.5457C190.982 74.9055 190.96 75.2683 191.004 75.617L112.077 94.716C107.992 95.7049 104.304 92.0239 105.294 87.9474L124.043 10.7798C125.498 11.0992 126.962 10.2215 127.35 8.77021C127.751 7.2766 126.861 5.74039 125.364 5.33926C123.867 4.93813 122.329 5.82388 121.929 7.31748C121.54 8.76882 122.368 10.2604 123.789 10.7117L101.442 86.9151C100.261 90.9405 95.2265 92.2843 92.1835 89.3855L33.3796 33.3809C33.5916 33.1008 33.7544 32.7765 33.8508 32.4166C34.251 30.923 33.3617 29.3868 31.8647 28.9856C30.3676 28.5845 28.8293 29.4703 28.4291 30.9639C28.0289 32.4575 28.9182 33.9937 30.4153 34.3948C31.4874 34.6821 32.5811 34.3092 33.2621 33.5257L89.3649 92.1985C92.2694 95.2357 90.9231 100.26 86.8891 101.438L8.96609 124.199C8.76815 123.18 8.00743 122.311 6.93527 122.023C5.43823 121.622 3.89996 122.508 3.49975 124.002C3.09954 125.495 3.98884 127.031 5.48589 127.433C6.98293 127.834 8.5212 126.948 8.92141 125.454Z" fill="white"/>
<path fill-rule="evenodd" clip-rule="evenodd" d="M8.9298 124.209C8.90096 124.061 8.86016 123.915 8.8082 123.775C8.7995 123.751 8.79048 123.727 8.78115 123.704C8.61289 123.283 8.34384 122.906 7.99544 122.608C7.68694 122.345 7.31621 122.144 6.89817 122.032C5.40053 121.631 3.86165 122.517 3.46128 124.011C3.06091 125.505 3.95056 127.042 5.4482 127.444C6.59882 127.752 7.77377 127.3 8.43807 126.397C8.63843 126.124 8.79232 125.811 8.8851 125.465C8.98156 125.104 9.00275 124.742 8.95923 124.393L87.9188 105.286C92.0051 104.297 95.6949 107.979 94.7044 112.057L75.9477 189.256C75.3051 189.115 74.661 189.207 74.1085 189.479C73.4089 189.823 72.8561 190.455 72.6387 191.266C72.2383 192.76 73.128 194.297 74.6256 194.699C76.1232 195.1 77.6621 194.214 78.0625 192.72C78.2799 191.908 78.1171 191.085 77.6833 190.437C77.3407 189.925 76.829 189.523 76.202 189.324L98.5584 113.09C99.7396 109.063 104.776 107.719 107.82 110.618L166.647 166.645C166.434 166.925 166.272 167.25 166.176 167.61C166.083 167.956 166.059 168.304 166.096 168.64C166.22 169.755 167.012 170.734 168.163 171.043C169.66 171.444 171.199 170.558 171.599 169.064C172 167.569 171.11 166.033 169.612 165.631C169.195 165.519 168.774 165.508 168.375 165.581C167.924 165.665 167.501 165.858 167.144 166.139C167.125 166.154 167.105 166.17 167.086 166.186C166.971 166.281 166.864 166.387 166.765 166.5L110.64 107.804C107.735 104.766 109.081 99.7394 113.116 98.5606L191.07 75.7914C191.099 75.9393 191.14 76.0841 191.191 76.2244C191.2 76.2477 191.209 76.271 191.218 76.2941C191.386 76.716 191.656 77.0944 192.005 77.3923C192.313 77.6555 192.684 77.8558 193.102 77.9677C194.6 78.369 196.138 77.4829 196.539 75.9887C196.939 74.4945 196.049 72.9577 194.552 72.5564C193.401 72.248 192.226 72.6999 191.561 73.6039C191.361 73.8762 191.208 74.1895 191.115 74.5354C191.018 74.8954 190.996 75.2584 191.041 75.6072L112.082 94.7138C107.996 95.7032 104.306 92.0206 105.297 87.9425L124.052 10.7441C124.695 10.8851 125.339 10.7929 125.892 10.5211C126.591 10.177 127.144 9.54492 127.361 8.73367C127.762 7.23949 126.872 5.70265 125.374 5.30136C123.877 4.90007 122.338 5.78618 121.938 7.28037C121.72 8.09161 121.883 8.91542 122.317 9.56325C122.659 10.0749 123.171 10.4767 123.798 10.676L101.443 86.9099C100.261 90.9369 95.2247 92.2812 92.1804 89.3812L33.3531 33.3543C33.5651 33.0741 33.728 32.7496 33.8245 32.3896C33.9172 32.0433 33.9407 31.6948 33.9035 31.3587C33.7799 30.2441 32.9881 29.2655 31.8375 28.9572C30.3399 28.5559 28.801 29.4421 28.4006 30.9363C28.0003 32.4304 28.8899 33.9673 30.3876 34.3686C30.8056 34.4806 31.2269 34.4923 31.6258 34.4184C32.0763 34.335 32.4981 34.1424 32.8543 33.8621C32.874 33.8465 32.8936 33.8307 32.9129 33.8147C33.0283 33.7187 33.1363 33.6132 33.2355 33.4991L89.3606 92.1953C92.2663 95.2338 90.9195 100.26 86.8839 101.439L8.9298 124.209ZM32.9643 36.0544L87.9398 93.5484C89.8285 95.5234 88.9533 98.7903 86.3301 99.5564L9.97254 121.861C9.35477 121.047 8.4713 120.424 7.40566 120.138C4.8596 119.456 2.24359 120.962 1.56294 123.503C0.882296 126.043 2.39465 128.655 4.94071 129.337C7.48678 130.02 10.1028 128.513 10.7834 125.973C10.7837 125.972 10.784 125.971 10.7842 125.97L88.3839 107.192C91.0402 106.549 93.4385 108.942 92.7947 111.593L74.3945 187.325C72.6793 187.674 71.2232 188.956 70.7403 190.758C70.0597 193.298 71.5721 195.91 74.1181 196.593C76.6642 197.275 79.2802 195.768 79.9608 193.228C80.4437 191.426 79.8235 189.588 78.5128 188.428L100.444 113.642C101.212 111.025 104.486 110.151 106.465 112.036L164.278 167.098C164.278 167.099 164.278 167.1 164.277 167.102C163.597 169.642 165.109 172.254 167.655 172.937C170.201 173.619 172.817 172.113 173.498 169.572C174.178 167.032 172.666 164.42 170.12 163.737C169.054 163.452 167.978 163.55 167.036 163.945L112.06 106.451C112.06 106.451 112.06 106.451 112.06 106.451C110.172 104.476 111.048 101.209 113.67 100.443L190.028 78.1399C190.645 78.9529 191.529 79.5762 192.594 79.8617C195.14 80.5439 197.756 79.0376 198.437 76.4974C199.118 73.9572 197.605 71.3446 195.059 70.6624C192.513 69.9802 189.897 71.4866 189.217 74.0268C189.216 74.028 189.216 74.0292 189.216 74.0304L111.617 92.8079C108.961 93.451 106.562 91.0576 107.206 88.4066L125.606 12.6754C127.321 12.3261 128.777 11.0443 129.26 9.24233C129.94 6.70213 128.428 4.0896 125.882 3.40738C123.336 2.72517 120.72 4.23151 120.039 6.77171C119.556 8.57367 120.177 10.4118 121.487 11.5719L99.5566 86.3569C98.7887 88.9747 95.5149 89.8482 93.5363 87.9634L35.722 32.9012C35.7222 32.9002 35.7225 32.8992 35.7228 32.8982C36.4034 30.358 34.8911 27.7455 32.345 27.0633C29.799 26.381 27.1829 27.8874 26.5023 30.4276C25.8217 32.9678 27.334 35.5803 29.8801 36.2625C30.9457 36.5481 32.0226 36.4498 32.9643 36.0544Z" fill="white"/>
</svg>
